<?xml version="1.0" encoding="UTF-8" standalone="no"?>
<svg
   xmlns:dc="http://purl.org/dc/elements/1.1/"
   xmlns:cc="http://creativecommons.org/ns#"
   xmlns:rdf="http://www.w3.org/1999/02/22-rdf-syntax-ns#"
   xmlns:svg="http://www.w3.org/2000/svg"
   xmlns="http://www.w3.org/2000/svg"
   xmlns:sodipodi="http://sodipodi.sourceforge.net/DTD/sodipodi-0.dtd"
   xmlns:inkscape="http://www.inkscape.org/namespaces/inkscape"
   inkscape:version="1.0 (4035a4fb49, 2020-05-01)"
   sodipodi:docname="law.svg"
   id="svg4"
   version="1.1"
   height="14.5"
   width="15.999812"
   viewBox="0 0 15.999812 14.5">
  <metadata
     id="metadata10">
    <rdf:RDF>
      <cc:Work
         rdf:about="">
        <dc:format>image/svg+xml</dc:format>
        <dc:type
           rdf:resource="http://purl.org/dc/dcmitype/StillImage" />
      </cc:Work>
    </rdf:RDF>
  </metadata>
  <defs
     id="defs8" />
  <sodipodi:namedview
     inkscape:current-layer="svg4"
     inkscape:window-maximized="1"
     inkscape:window-y="-8"
     inkscape:window-x="-8"
     inkscape:cy="5.5569505"
     inkscape:cx="6.8934469"
     inkscape:zoom="18.782524"
     showgrid="false"
     id="namedview6"
     inkscape:window-height="1017"
     inkscape:window-width="1920"
     inkscape:pageshadow="2"
     inkscape:pageopacity="0"
     guidetolerance="10"
     gridtolerance="10"
     objecttolerance="10"
     borderopacity="1"
     bordercolor="#666666"
     pagecolor="#ffffff" />
  <path
     id="path2"
     d="m 8.7499061,0.75 a 0.75,0.75 0 0 0 -1.5,0 V 2 h -0.984 c -0.305,0 -0.604,0.08 -0.869,0.23 l -1.288,0.737 A 0.25,0.25 0 0 1 3.9839061,3 h -2.234 a 0.75,0.75 0 0 0 0,1.5 h 0.428 L 0.06590611,9.192 a 0.75,0.75 0 0 0 0.154,0.838 l 0.53,-0.53 -0.53,0.53 v 0.001 l 0.002,0.002 0.002,0.002 0.006,0.006 0.016,0.015 0.045,0.04 a 3.514,3.514 0 0 0 0.686,0.45 A 4.492,4.492 0 0 0 2.9999061,11 c 0.88,0 1.556,-0.22 2.023,-0.454 a 3.515,3.515 0 0 0 0.686,-0.45 l 0.045,-0.04 0.016,-0.015 0.006,-0.006 0.002,-0.002 0.001,-0.002 -0.529,-0.531 0.53,0.53 a 0.75,0.75 0 0 0 0.154,-0.838 l -2.112,-4.692 h 0.162 c 0.305,0 0.604,-0.08 0.869,-0.23 l 1.289,-0.737 a 0.25,0.25 0 0 1 0.124,-0.033 h 0.984 V 13 h -2.5 a 0.75,0.75 0 0 0 0,1.5 h 6.4999999 a 0.75,0.75 0 0 0 0,-1.5 H 8.7499061 V 3.5 h 0.984 a 0.25,0.25 0 0 1 0.124,0.033 l 1.2899999,0.736 c 0.264,0.152 0.563,0.231 0.868,0.231 h 0.162 l -2.112,4.692 a 0.75,0.75 0 0 0 0.154,0.838 l 0.53,-0.53 -0.53,0.53 v 0.001 l 0.002,0.002 0.002,0.002 0.006,0.006 0.016,0.015 0.045,0.04 a 3.517,3.517 0 0 0 0.686,0.45 4.492,4.492 0 0 0 2.023,0.454 c 0.88,0 1.556,-0.22 2.023,-0.454 a 3.512,3.512 0 0 0 0.686,-0.45 l 0.045,-0.04 0.01,-0.01 0.006,-0.005 0.006,-0.006 0.002,-0.002 10e-4,-0.002 -0.529,-0.531 0.53,0.53 a 0.75,0.75 0 0 0 0.154,-0.838 l -2.111,-4.692 h 0.427 a 0.75,0.75 0 0 0 0,-1.5 h -2.234 a 0.25,0.25 0 0 1 -0.124,-0.033 l -1.29,-0.736 A 1.75,1.75 0 0 0 9.7349061,2 h -0.985 z m -7.055,8.477 c 0.285,0.135 0.718,0.273 1.305,0.273 0.587,0 1.02,-0.138 1.305,-0.273 l -1.305,-2.9 z m 9.9999999,0 c 0.285,0.135 0.718,0.273 1.305,0.273 0.587,0 1.02,-0.138 1.305,-0.273 l -1.305,-2.9 z"
     fill-rule="evenodd" />
</svg>
